<svg id="Layer_1" data-name="Layer 1" xmlns="http://www.w3.org/2000/svg" viewBox="0 0 300 600"><defs><style>.cls-1{fill:#fff;}.cls-2{fill:red;}</style></defs><rect class="cls-1" x="459.31" y="409.31" width="200" height="100" transform="translate(509.31 -459.31) rotate(90)"/><rect class="cls-1" x="609.31" y="359.31" width="100" height="100" transform="translate(559.31 -609.31) rotate(90)"/><rect class="cls-1" x="609.31" y="259.31" width="100" height="300" transform="translate(559.31 -609.31) rotate(90)"/><rect class="cls-1" x="509.31" y="459.31" width="100" height="100" transform="translate(559.31 -409.31) rotate(90)"/><rect class="cls-1" x="659.31" y="409.31" width="200" height="100" transform="translate(709.31 -659.31) rotate(90)"/><rect class="cls-1" x="609.31" y="559.31" width="100" height="100" transform="translate(759.31 -409.31) rotate(90)"/><rect class="cls-2" x="609.31" y="659.31" width="100" height="100" transform="translate(859.31 -309.31) rotate(90)"/><rect class="cls-1" x="709.31" y="659.31" width="100" height="100" transform="translate(959.31 -409.31) rotate(90)"/><rect class="cls-1" x="559.31" y="809.31" width="200" height="100" transform="translate(1009.31 -159.31) rotate(90)"/><rect class="cls-1" x="609.31" y="859.31" width="100" height="100" transform="translate(1059.31 -109.31) rotate(90)"/><rect class="cls-1" x="509.31" y="659.31" width="100" height="100" transform="translate(759.31 -209.31) rotate(90)"/></svg>